<?xml version="1.0" encoding="utf-8"?>
<!-- Generator: Adobe Illustrator 16.0.0, SVG Export Plug-In . SVG Version: 6.00 Build 0)  -->
<!DOCTYPE svg PUBLIC "-//W3C//DTD SVG 1.1//EN" "http://www.w3.org/Graphics/SVG/1.1/DTD/svg11.dtd">
<svg version="1.1" id="Layer_1" xmlns="http://www.w3.org/2000/svg" xmlns:xlink="http://www.w3.org/1999/xlink" x="0px" y="0px"
	 width="512px" height="512px" viewBox="0 0 512 512" enable-background="new 0 0 512 512" xml:space="preserve">
<g>
	<path d="M128,80H32C14.313,80,0,94.344,0,112v352c0,17.688,14.313,32,32,32h96c17.688,0,32-14.313,32-32V112
		C160,94.344,145.688,80,128,80z M48,400c-8.844,0-16-7.156-16-16s7.156-16,16-16s16,7.156,16,16S56.844,400,48,400z M128,208H32
		v-32h96V208z M128,144H32v-32h96V144z"/>
	<path d="M336,432v-32h-96v32c-17.688,0-32,14.313-32,32h160C368,446.313,353.688,432,336,432z"/>
	<path d="M480,16H96c-17.688,0-32,14.344-32,32h32h96h288v256H192v64h288c17.688,0,32-14.313,32-32V48C512,30.344,497.688,16,480,16
		z M288,352c-8.844,0-16-7.156-16-16s7.156-16,16-16s16,7.156,16,16S296.844,352,288,352z"/>
</g>
</svg>
